<?xml version="1.0" encoding="utf-8"?>
<!-- Svg Vector Icons : http://www.onlinewebfonts.com/icon -->
<!DOCTYPE svg PUBLIC "-//W3C//DTD SVG 1.1//EN" "http://www.w3.org/Graphics/SVG/1.1/DTD/svg11.dtd">
<svg version="1.1" xmlns="http://www.w3.org/2000/svg" xmlns:xlink="http://www.w3.org/1999/xlink" x="0px" y="0px" viewBox="0 0 1000 1000" enable-background="new 0 0 1000 1000" xml:space="preserve">
<metadata> Svg Vector Icons : http://www.onlinewebfonts.com/icon </metadata>
<g><g transform="translate(0.000000,512.000000) scale(0.100000,-0.100000)"><path d="M3592.9,4981.7c-137.8-45.9-243.1-124.4-312-227.8c-57.4-86.1-114.8-245-114.8-313.9c0-32.5-65.1-34.5-1295.7-38.3l-1297.6-5.7l-107.2-49.8c-135.9-63.2-239.2-166.5-302.4-302.4c-47.8-103.3-49.8-124.4-55.5-484.2l-7.7-379h306.2h304.3l13.4,88c26.8,195.2,170.3,388.5,352.2,472.7l90,42.1h1693.8h1693.8l90-42.1c181.8-84.2,325.4-277.5,352.2-472.7l13.4-88h914.9h916.8V2974v-204.8l-306.2-101.4l-306.2-101.4V2262v-304.3l306.2,103.3l306.2,103.3v-310v-310.1l-306.2-101.4l-306.2-101.4v-304.3V732.8l306.2,103.3l306.2,103.3v-310V319.4L6534.6,218l-306.2-101.4v-306.2V-494h-610.5h-608.6l-13.4-88c-26.8-195.2-170.3-388.5-352.2-472.7l-90-42.1H2859.9H1166.1l-90,42.1c-181.8,84.2-325.4,277.5-352.2,472.7l-13.4,88H406.2H100l7.7-377.1c5.7-361.7,7.7-382.8,55.5-486.1c63.2-135.9,166.5-239.2,302.4-302.4l107.2-49.8l1293.8-5.7l1295.7-5.7l11.5-80.4c30.6-201,166.5-382.8,354.1-470.8l107.2-49.8l983.8-5.7l981.9-5.7l587.6,116.7c321.5,65.1,601,120.6,620.1,126.3c30.6,9.6,32.5-34.4,32.5-727.3v-738.8h-331.1h-333l-45.9,99.5c-67,147.4-269.9,346.4-426.8,419.1c-779,363.6-1584.7-440.2-1219.2-1219.2c38.3-84.2,99.5-166.5,181.8-248.8C4948-4787,5344.2-4854,5709.7-4685.5c151.2,70.8,354.1,271.8,421.1,417.2l45.9,99.5h968.5h968.4l63.2-122.5c126.3-245,380.9-424.9,669.9-474.6c593.3-101.4,1142.6,447.9,1041.2,1041.2c-67,396.2-359.8,692.8-750.3,763.6c-379,67-784.7-132-960.8-472.7l-63.2-122.5h-331.1h-329.2l3.8,798.1l5.7,798.1l593.3,120.6c327.3,65.1,601,118.7,608.6,120.6c9.6,0,13.4,170.4,9.6,379c-5.7,359.8-7.6,380.9-55.5,484.2c-63.2,135.9-166.5,239.2-302.4,302.4c-103.3,47.8-124.4,49.8-484.2,55.5l-378.9,7.7v202.9v204.8l306.2,101.4l306.2,101.4v304.3V729l-306.2-103.3l-306.2-103.3v310v310.1l306.2,101.4l306.2,101.4v304.3v304.3l-306.2-103.3l-306.2-103.4v310.1v310.1l306.2,101.4l306.2,101.4v310v310.1l306.2,306.2l306.2,306.2v300.5c0,166.5-1.9,302.4-5.7,302.4c-1.9,0-692.9,137.8-1535,306.2l-1531.2,306.2h-957C3778.6,5016.2,3682.9,5014.2,3592.9,4981.7z M8027.5,3167.3c-15.3-7.7-151.2-53.6-300.5-103.3l-273.7-91.9v105.3v103.3l302.4-1.9C7920.3,3178.8,8042.8,3173.1,8027.5,3167.3z M6840.9-388.8V-494l-300.5,1.9l-302.4,1.9l296.7,101.4c162.7,55.5,298.6,103.4,302.4,103.4C6838.9-283.5,6840.9-331.3,6840.9-388.8z"/><path d="M1587.1,3134.8c-114.8-53.6-166.5-107.2-218.2-222c-38.3-84.2-40.2-116.7-40.2-1569.4s1.9-1485.2,40.2-1569.4c47.8-107.2,101.4-164.6,199-216.3c76.6-42.1,84.2-42.1,1291.9-42.1s1215.3,0,1291.9,42.1c88,45.9,143.5,103.3,193.3,197.1c34.4,63.2,36.4,134,42.1,1129.2l5.7,1060.3l-618.2,618.2l-618.2,618.2h-736.9C1684.7,3180.7,1682.8,3180.7,1587.1,3134.8z M3166.1,2415.1v-459.3h459.3h459.3V884V-187.8H2859.9H1635v1531.1v1531.1h765.6h765.6V2415.1z"/></g></g>
</svg>